Coordinates
version=1
nRows=8
nColumns=40
inDegrees=yes

Units are S.I. units (second, meters, Newtons, ...)
If the header above contains a line with 'inDegrees', this indicates whether rotational values are in degrees (yes) or radians (no).

endheader
time	pelvis_tilt	pelvis_list	pelvis_rotation	pelvis_tx	pelvis_ty	pelvis_tz	hip_flexion_r	hip_adduction_r	hip_rotation_r	knee_angle_r	knee_angle_r_beta	ankle_angle_r	subtalar_angle_r	mtp_angle_r	hip_flexion_l	hip_adduction_l	hip_rotation_l	knee_angle_l	knee_angle_l_beta	ankle_angle_l	subtalar_angle_l	mtp_angle_l	lumbar_extension	lumbar_bending	lumbar_rotation	arm_flex_r	arm_add_r	arm_rot_r	elbow_flex_r	pro_sup_r	wrist_flex_r	wrist_dev_r	arm_flex_l	arm_add_l	arm_rot_l	elbow_flex_l	pro_sup_l	wrist_flex_l	wrist_dev_l
      7.76700000	     -8.27317219	      8.69859897	    -11.63654220	      0.05243976	      1.31097204	      0.01732257	     43.30330083	     -7.05599200	      6.83488020	     57.54886986	      1.00441726	    -24.10253902	    -27.46080749	      0.00000000	     78.96084638	     -9.75225553	     -4.63575463	     98.57779169	      1.72050703	     -8.13395274	    -26.19024137	      0.00000000	    -35.08431836	    -11.59863734	     -2.19400294	     59.15970950	     -2.19789855	      0.53952356	     50.31728419	     85.73586083	      0.00000000	      0.00000000	     64.21630058	     -5.45394157	     -8.70796089	     55.23851571	     80.37207097	      0.00000000	      0.00000000
      7.78300000	     -8.08019865	      8.18655379	    -11.58354643	      0.05259578	      1.31137896	      0.01711873	     44.27009050	     -5.89234903	      8.52816233	     63.26912921	      1.10425462	    -23.16240893	    -28.81956517	      0.00000000	     77.72382070	     -9.24725311	     -3.99307047	     93.66799060	      1.63481484	     -8.15894748	    -26.27683466	      0.00000000	    -35.36149773	    -11.05282960	     -1.92817466	     59.29189792	     -2.32075957	      0.65311464	     50.34131493	     85.34625659	      0.00000000	      0.00000000	     64.35442463	     -5.39031735	     -8.74298011	     55.08584648	     80.22904319	      0.00000000	      0.00000000
      7.80000000	     -7.94850222	      8.02500244	    -11.78211047	      0.05259581	      1.31170210	      0.01712719	     45.91377818	     -4.73280913	     10.36766536	     69.32649823	      1.20997565	    -22.80269875	    -29.97269217	      0.00000000	     75.76619329	     -8.88155511	     -4.00397877	     88.30030229	      1.54113101	     -8.61163854	    -26.86360161	      0.00000000	    -35.47227611	    -10.93231197	     -1.64157918	     59.38194935	     -2.36836856	      0.71688007	     50.38816275	     85.32312377	      0.00000000	      0.00000000	     64.51225153	     -5.42180085	     -8.73117794	     54.90359275	     80.30767356	      0.00000000	      0.00000000
      7.81700000	     -7.75743415	      7.77720716	    -12.17867763	      0.05256952	      1.31209489	      0.01748240	     47.95187644	     -3.28205916	     12.14619410	     75.68120723	      1.32088625	    -22.60060846	    -30.25892593	      0.00000000	     72.98103522	     -8.80820421	     -4.47395629	     82.57561997	      1.44121645	     -9.36542186	    -28.13178075	      0.00000000	    -35.59106001	    -10.81317395	     -1.15309109	     59.45685176	     -2.26092363	      0.56506866	     50.45901715	     85.68880292	      0.00000000	      0.00000000	     64.54815060	     -5.41268333	     -8.90375888	     54.89537056	     80.68812491	      0.00000000	      0.00000000
      7.83300000	     -7.54911286	      7.43373032	    -12.60320635	      0.05255674	      1.31239598	      0.01785643	     50.33725068	     -1.65512573	     13.61131086	     82.31182430	      1.43661235	    -22.33584104	    -30.38575250	      0.00000000	     69.48573400	     -8.78175402	     -5.03184429	     76.37365073	      1.33297167	    -10.10956806	    -28.80810695	      0.00000000	    -35.67855965	    -10.59159385	     -0.64033010	     59.67971008	     -2.14309872	      0.71081579	     50.25196742	     85.55257255	      0.00000000	      0.00000000	     64.53587365	     -5.39797149	     -9.27105460	     54.82752715	     80.60586056	      0.00000000	      0.00000000
      7.85000000	     -7.40651591	      7.12840721	    -13.15172951	      0.05238635	      1.31250315	      0.01827886	     52.90714250	      0.09374302	     14.94736718	     88.48104467	      1.54428556	    -22.09825030	    -30.33160967	      0.00000000	     65.62003219	     -8.83237401	     -5.81638789	     70.16263600	      1.22456901	    -10.95647150	    -29.28992392	      0.00000000	    -35.69829547	    -10.42855277	     -0.06877007	     59.91672280	     -1.90848307	      0.78230012	     50.01507964	     85.42044339	      0.00000000	      0.00000000	     64.39465346	     -5.46353727	     -9.63171746	     54.88081106	     80.32517290	      0.00000000	      0.00000000
      7.86700000	     -7.63180955	      6.61369378	    -13.58305302	      0.05229104	      1.31210703	      0.01884366	     55.84646229	      1.90649786	     15.53437546	     94.15215473	      1.64326510	    -21.42160497	    -30.72056128	      0.00000000	     61.56420497	     -8.94390829	     -6.42047212	     63.83430154	      1.11411874	    -11.72436406	    -28.68154813	      0.00000000	    -35.36001583	     -9.97652924	      0.56273504	     60.07377418	     -1.65982740	      1.04194461	     49.70623655	     85.55225613	      0.00000000	      0.00000000	     63.98100007	     -5.46185860	    -10.28581899	     55.12686358	     80.27667926	      0.00000000	      0.00000000
      7.88300000	     -7.80005992	      6.55995444	    -14.39146141	      0.05201141	      1.31144627	      0.01960611	     59.12725106	      3.72921592	     16.54032204	     99.50719905	      1.73672825	    -20.77696884	    -30.96706631	      0.00000000	     56.92308821	     -8.94418561	     -7.82771888	     57.21503911	      0.99859081	    -12.60683477	    -28.20665677	      0.00000000	    -34.97616840	    -10.08687634	      1.11578215	     60.31040767	     -1.21621502	      1.34943933	     49.27875080	     85.68221492	      0.00000000	      0.00000000	     63.43343952	     -5.61684059	    -11.00037335	     55.54793546	     80.19224636	      0.00000000	      0.00000000
